<svg width="46" height="29" viewBox="0 0 46 29" fill="none" xmlns="http://www.w3.org/2000/svg">
<path d="M28.1901 14.254C28.1901 21.8788 22.0799 28.0599 14.5426 28.0599C7.00523 28.0599 0.89502 21.8788 0.89502 14.254C0.89502 6.62914 7.00523 0.447998 14.5426 0.447998C22.0799 0.447998 28.1901 6.62914 28.1901 14.254Z" fill="#ED0006"/>
<path d="M45.8952 14.254C45.8952 21.8788 39.785 28.0599 32.2476 28.0599C24.7103 28.0599 18.6001 21.8788 18.6001 14.254C18.6001 6.62914 24.7103 0.447998 32.2476 0.447998C39.785 0.447998 45.8952 6.62914 45.8952 14.254Z" fill="#0099DF"/>
<path fill-rule="evenodd" clip-rule="evenodd" d="M23.3951 3.74609C26.3295 6.27836 28.1901 10.0463 28.1901 14.254C28.1901 18.4616 26.3295 22.2295 23.3951 24.7618C20.4608 22.2295 18.6001 18.4616 18.6001 14.254C18.6001 10.0463 20.4608 6.27836 23.3951 3.74609Z" fill="#6C6BBD"/>
</svg>
