<svg width="46" height="29" viewBox="0 0 46 29" fill="none" xmlns="http://www.w3.org/2000/svg">
<path fill-rule="evenodd" clip-rule="evenodd" d="M23.395 24.7619C21.0119 26.8184 17.9205 28.0599 14.5426 28.0599C7.00523 28.0599 0.89502 21.8788 0.89502 14.254C0.89502 6.62914 7.00523 0.447998 14.5426 0.447998C17.9205 0.447998 21.0119 1.6895 23.395 3.74606C25.7782 1.6895 28.8695 0.447998 32.2475 0.447998C39.7848 0.447998 45.895 6.62914 45.895 14.254C45.895 21.8788 39.7848 28.0599 32.2475 28.0599C28.8695 28.0599 25.7782 26.8184 23.395 24.7619Z" fill="#ED0006"/>
<path fill-rule="evenodd" clip-rule="evenodd" d="M23.395 24.7619C26.3294 22.2296 28.1901 18.4616 28.1901 14.254C28.1901 10.0463 26.3294 6.27833 23.395 3.74606C25.7782 1.6895 28.8695 0.447998 32.2475 0.447998C39.7848 0.447998 45.895 6.62914 45.895 14.254C45.895 21.8788 39.7848 28.0599 32.2475 28.0599C28.8695 28.0599 25.7782 26.8184 23.395 24.7619Z" fill="#F9A000"/>
<path fill-rule="evenodd" clip-rule="evenodd" d="M23.3951 3.74609C26.3295 6.27836 28.1901 10.0463 28.1901 14.254C28.1901 18.4616 26.3295 22.2295 23.3951 24.7618C20.4608 22.2295 18.6001 18.4616 18.6001 14.254C18.6001 10.0463 20.4608 6.27836 23.3951 3.74609Z" fill="#FF5E00"/>
</svg>
