<svg width="52" height="16" viewBox="0 0 52 16" fill="none" xmlns="http://www.w3.org/2000/svg">
<path fill-rule="evenodd" clip-rule="evenodd" d="M14.0124 3.04414e-07V0.0069872C14.0059 0.0069872 11.9812 2.66529e-07 11.4413 2.10306C10.9464 4.03144 9.55155 9.35546 9.51298 9.50218H9.12732C9.12732 9.50218 7.70037 4.05939 7.19901 2.09607C6.65909 -0.00698666 4.62794 3.04414e-07 4.62794 3.04414e-07H0V16H4.62794V6.49782H4.82077H5.0136L7.71323 16H10.9271L13.6267 6.5048H14.0124V16H18.6403V3.04414e-07H14.0124Z" fill="#4DB45E"/>
<path fill-rule="evenodd" clip-rule="evenodd" d="M30.9171 0C30.9171 0 29.5609 0.132751 28.9245 1.67686L25.6464 9.50218H25.2607V0H20.6328V16H25.0036C25.0036 16 26.4242 15.8603 27.0605 14.3231L30.2743 6.49782H30.66V16H35.2879V0H30.9171Z" fill="#4DB45E"/>
<path fill-rule="evenodd" clip-rule="evenodd" d="M37.3447 7.26636V16H41.9727V10.8995H46.9863C49.1717 10.8995 51.0229 9.38339 51.7106 7.26636H37.3447Z" fill="#4DB45E"/>
<path fill-rule="evenodd" clip-rule="evenodd" d="M46.986 0H36.6953C37.2095 3.04629 39.3114 5.4917 42.0303 6.28821C42.6474 6.46987 43.2965 6.56769 43.965 6.56769H51.8968C51.9675 6.20437 51.9996 5.83406 51.9996 5.44978C51.9996 2.43843 49.7564 0 46.986 0Z" fill="url(#paint0_linear_43_82)"/>
<defs>
<linearGradient id="paint0_linear_43_82" x1="36.6966" y1="3.28384" x2="51.9996" y2="3.28384" gradientUnits="userSpaceOnUse">
<stop offset="0.3" stop-color="#00B4E6"/>
<stop offset="1" stop-color="#088CCB"/>
</linearGradient>
</defs>
</svg>
