<svg width="24" height="24" viewBox="0 0 24 24" fill="none" xmlns="http://www.w3.org/2000/svg">
<path opacity="0.2" d="M11.9893 21.6385C11.8599 21.6385 11.7328 21.6051 11.6202 21.5414L3.74521 17.0903C3.62959 17.025 3.53339 16.9301 3.46646 16.8154C3.39953 16.7007 3.36426 16.5702 3.36426 16.4374V7.56261C3.36423 7.42904 3.3999 7.29789 3.46757 7.18274L3.46763 7.18277L12.0888 12L11.9893 21.6385L11.9893 21.6385Z" fill="#1D243F"/>
<path d="M12.0888 12L11.9893 21.6385" stroke="#1D243F" stroke-width="1.5" stroke-linecap="round" stroke-linejoin="round"/>
<path d="M20.6143 16.4374V7.5626C20.6143 7.42978 20.579 7.29935 20.5121 7.18463C20.4451 7.06991 20.3489 6.97503 20.2333 6.90968L12.3583 2.45859C12.2457 2.39495 12.1186 2.36151 11.9893 2.36151C11.8599 2.36151 11.7328 2.39495 11.6202 2.45859L3.74521 6.90968C3.62959 6.97503 3.53339 7.06991 3.46646 7.18463C3.39953 7.29935 3.36426 7.42978 3.36426 7.5626V16.4374C3.36426 16.5702 3.39953 16.7007 3.46646 16.8154C3.53339 16.9301 3.62959 17.025 3.74521 17.0903L11.6202 21.5414C11.7328 21.605 11.8599 21.6385 11.9893 21.6385C12.1186 21.6385 12.2457 21.605 12.3583 21.5414L20.2333 17.0903C20.3489 17.025 20.4451 16.9301 20.5121 16.8154C20.579 16.7007 20.6143 16.5702 20.6143 16.4374V16.4374Z" stroke="#1D243F" stroke-width="1.5" stroke-linecap="round" stroke-linejoin="round"/>
<path d="M20.5117 7.18377L12.0889 12L3.46777 7.18274" stroke="#1D243F" stroke-width="1.5" stroke-linecap="round" stroke-linejoin="round"/>
<path d="M16.596 13.9229V9.42293L7.89795 4.56274" stroke="#1D243F" stroke-width="1.5" stroke-linecap="round" stroke-linejoin="round"/>
</svg>
