<svg width="49" height="16" viewBox="0 0 49 16" fill="none" xmlns="http://www.w3.org/2000/svg">
<path fill-rule="evenodd" clip-rule="evenodd" d="M12.2505 15.5165H8.00987L4.82991 3.38475C4.67897 2.82669 4.3585 2.33333 3.88708 2.1008C2.71062 1.51646 1.41424 1.05141 0 0.81686V0.349787H6.83134C7.77417 0.349787 8.48129 1.05141 8.59914 1.86626L10.2491 10.6173L14.4877 0.349787H18.6104L12.2505 15.5165ZM20.9673 15.5164H16.9624L20.2602 0.349731H24.2652L20.9673 15.5164ZM29.4466 4.55143C29.5645 3.73456 30.2716 3.26748 31.0966 3.26748C32.393 3.15021 33.8051 3.38476 34.9837 3.96708L35.6908 0.701619C34.5122 0.234547 33.2159 0 32.0394 0C28.1523 0 25.3238 2.10081 25.3238 5.01648C25.3238 7.23457 27.3273 8.39921 28.7416 9.10083C30.2716 9.80043 30.8609 10.2675 30.743 10.9671C30.743 12.0165 29.5645 12.4836 28.388 12.4836C26.9738 12.4836 25.5595 12.1338 24.2652 11.5494L23.5581 14.8169C24.9723 15.3992 26.5024 15.6338 27.9166 15.6338C32.2751 15.749 34.9837 13.6502 34.9837 10.5C34.9837 6.53295 29.4466 6.30042 29.4466 4.55143ZM48.9998 15.5164L45.8199 0.349731H42.4042C41.6971 0.349731 40.9899 0.816804 40.7542 1.5164L34.8657 15.5164H38.9885L39.8114 13.3004H44.877L45.3484 15.5164H48.9998ZM42.9934 4.4342L44.1699 10.1503H40.8721L42.9934 4.4342Z" fill="#172B85"/>
</svg>
